# Blender v3.1.2 OBJ File: ''
# www.blender.org
mtllib cornell-box.mtl
o area_light
v -0.246326 0.722841 -0.122894
v 0.096130 0.723062 0.153705
v -0.246326 0.723062 0.153705
v 0.096130 0.722841 -0.122894
vn 0.0000 -1.0000 0.0008
usemtl Light
s 1
f 1//1 2//1 3//1
f 1//1 4//1 2//1
o back_wall
v -0.790569 -0.721057 -0.720252
v 0.657232 0.724637 -0.721403
v -0.807429 0.724637 -0.721403
v 0.657232 -0.721057 -0.720252
vn 0.0000 0.0008 1.0000
usemtl Khaki
s 1
f 5//2 6//2 7//2
f 5//2 8//2 6//2
o ceiling
v -0.807429 0.724637 -0.721403
v 0.657232 0.725809 0.751687
v -0.807429 0.725809 0.751687
v 0.657232 0.724637 -0.721403
vn 0.0000 -1.0000 0.0008
usemtl Khaki
s 1
f 9//3 10//3 11//3
f 9//3 12//3 10//3
o floor
v 0.657232 -0.719884 0.752838
v -0.790569 -0.721057 -0.720252
v -0.798999 -0.719884 0.752838
v 0.657232 -0.721057 -0.720252
vn 0.0000 1.0000 -0.0008
usemtl Khaki
s 1
f 13//4 14//4 15//4
f 13//4 16//4 14//4
o left_wall
v -0.798999 -0.719884 0.752838
v -0.807429 0.724637 -0.721403
v -0.807429 0.725809 0.751687
v -0.790569 -0.721057 -0.720252
vn 1.0000 0.0087 0.0028
vn 1.0000 0.0088 0.0029
vn 1.0000 0.0058 -0.0000
vn 0.9999 0.0117 0.0057
usemtl BloodyRed
s 1
f 17//5 18//6 19//7
f 17//5 20//8 18//6
o right_wall
v 0.657232 -0.719884 0.752838
v 0.657232 0.724637 -0.721403
v 0.657232 -0.721057 -0.720252
v 0.657232 0.725809 0.751687
vn -1.0000 0.0000 0.0000
usemtl DarkGreen
s 1
f 21//9 22//9 23//9
f 21//9 24//9 22//9
o short_box
v 0.314776 -0.285364 0.581264
v 0.025005 -0.285798 0.035967
v -0.106709 -0.285467 0.452184
v -0.106709 -0.285467 0.452184
v 0.025005 -0.720455 0.036313
v -0.106709 -0.720123 0.452530
v 0.314776 -0.285364 0.581264
v -0.106709 -0.720123 0.452530
v 0.314776 -0.720020 0.581610
v 0.441221 -0.285699 0.159779
v 0.314776 -0.720020 0.581610
v 0.441221 -0.720356 0.160125
v 0.025005 -0.285798 0.035967
v 0.441221 -0.720356 0.160125
v 0.025005 -0.720455 0.036313
v 0.441221 -0.285699 0.159779
v 0.025005 -0.285798 0.035967
v -0.106709 -0.285467 0.452184
v 0.314776 -0.285364 0.581264
v 0.441221 -0.285699 0.159779
vn 0.0000 1.0000 -0.0008
vn -0.9534 -0.0002 -0.3017
vn -0.2928 0.0008 0.9562
vn 0.9578 0.0002 0.2873
vn 0.2851 -0.0008 -0.9585
usemtl Khaki
s 1
f 25//10 26//10 27//10
f 28//11 29//11 30//11
f 31//12 32//12 33//12
f 34//13 35//13 36//13
f 37//14 38//14 39//14
f 25//10 40//10 26//10
f 28//11 41//11 29//11
f 31//12 42//12 32//12
f 34//13 43//13 35//13
f 37//14 44//14 38//14
o tall_box
v -0.040852 0.148808 -0.027601
v -0.586149 0.148577 -0.317372
v -0.457069 0.148911 0.101478
v -0.457069 -0.720402 0.102171
v -0.586149 0.148577 -0.317372
v -0.586149 -0.720736 -0.316680
v -0.586149 0.148577 -0.317372
v -0.169932 -0.720840 -0.448394
v -0.586149 -0.720736 -0.316680
v -0.169932 0.148472 -0.449086
v -0.040852 -0.720505 -0.026909
v -0.169932 -0.720840 -0.448394
v -0.040852 0.148808 -0.027601
v -0.457069 -0.720402 0.102171
v -0.040852 -0.720505 -0.026909
v -0.169932 0.148472 -0.449086
v -0.457069 0.148911 0.101478
v -0.169932 0.148472 -0.449086
v -0.040852 0.148808 -0.027601
v -0.457069 0.148911 0.101478
vn -0.0000 1.0000 -0.0008
vn -0.9556 0.0002 0.2945
vn -0.3017 -0.0008 -0.9534
vn 0.9562 -0.0002 -0.2928
vn 0.2962 0.0008 0.9551
usemtl Khaki
s 1
f 45//15 46//15 47//15
f 48//16 49//16 50//16
f 51//17 52//17 53//17
f 54//18 55//18 56//18
f 57//19 58//19 59//19
f 45//15 60//15 46//15
f 48//16 61//16 49//16
f 51//17 62//17 52//17
f 54//18 63//18 55//18
f 57//19 64//19 58//19
